<svg width="36" height="25" viewBox="0 0 36 25" fill="none" xmlns="http://www.w3.org/2000/svg">
<g opacity="0.6">
<path d="M30.978 0.853907L13.1658 18.6663L5.02198 10.5225C4.06159 9.56231 2.50475 9.56231 1.54436 10.5225C0.584171 11.4829 0.584171 13.0397 1.54436 14.0001L11.427 23.8827C11.9072 24.3627 12.5365 24.6029 13.1658 24.6029C13.7951 24.6029 14.4244 24.3627 14.9046 23.8827L34.4556 4.33172C35.4158 3.37133 35.4158 1.81449 34.4556 0.854104C33.4952 -0.106283 31.9382 -0.106283 30.978 0.853907Z" fill="#42D75D"/>
<path d="M30.978 0.853907L13.1658 18.6663L5.02198 10.5225C4.06159 9.56231 2.50475 9.56231 1.54436 10.5225C0.584171 11.4829 0.584171 13.0397 1.54436 14.0001L11.427 23.8827C11.9072 24.3627 12.5365 24.6029 13.1658 24.6029C13.7951 24.6029 14.4244 24.3627 14.9046 23.8827L34.4556 4.33172C35.4158 3.37133 35.4158 1.81449 34.4556 0.854104C33.4952 -0.106283 31.9382 -0.106283 30.978 0.853907Z" fill="url(#paint0_linear_195_236)" fill-opacity="0.4"/>
</g>
<defs>
<linearGradient id="paint0_linear_195_236" x1="18" y1="0.5" x2="18" y2="24.6029" gradientUnits="userSpaceOnUse">
<stop stop-color="#429FD7"/>
<stop offset="1" stop-color="#429FD7"/>
</linearGradient>
</defs>
</svg>
