<svg width="40" height="27" viewBox="0 0 40 27" fill="none" xmlns="http://www.w3.org/2000/svg">
<path fill-rule="evenodd" clip-rule="evenodd" d="M2.69112 0.114746H37.3067L21.4478 14.866C21.0556 15.2289 20.5278 15.4087 19.9956 15.4087C19.4633 15.4087 18.9356 15.2208 18.54 14.8533L2.69112 0.114746ZM39.9433 1.85156C39.9711 1.98489 39.9833 2.1275 39.9833 2.27359V24.0069C39.9833 24.6284 39.7278 25.1918 39.3156 25.5884L27.5833 13.346L39.9433 1.85156ZM35.8833 26.16H4.21112L14.5667 15.3495L16.5422 17.1907C17.4978 18.0753 18.75 18.5263 19.9945 18.531C21.2345 18.531 22.4867 18.0881 23.4389 17.2034L25.4789 15.3043L35.8833 26.16ZM0.731119 25.6347C0.506675 25.433 0.327786 25.1826 0.204453 24.902C0.0811195 24.6214 0.0166751 24.3165 0.015564 24.0069V2.27359C0.015564 2.1275 0.0277862 1.98953 0.055564 1.8562L12.4633 13.3924L0.731119 25.6347Z" fill="#303030"/>
</svg>
