<svg width="122" height="117" viewBox="0 0 122 117" fill="none" xmlns="http://www.w3.org/2000/svg">
<path d="M52.0951 18.1889L52.098 18.1889L52.6698 18.1892C52.6704 18.1892 52.6711 18.1892 52.6717 18.1892C55.7114 18.1967 58.5533 18.364 61.4123 18.9666L61.4134 18.9668L61.9939 19.0888C61.9961 19.0893 61.9984 19.0897 62.0006 19.0902C70.4605 20.9313 78.1117 25.0267 84.3341 31.0191L84.335 31.02L84.6851 31.3567C84.6857 31.3572 84.6862 31.3577 84.6867 31.3583C86.1526 32.7758 87.4848 34.1441 88.6468 35.6684L88.6511 35.6741L88.6554 35.6798L88.8911 35.9844C90.2703 37.7731 91.491 39.6586 92.6472 41.6506L92.6499 41.6552L92.8694 42.0311C92.8704 42.0328 92.8714 42.0346 92.8724 42.0363C95.5395 46.6611 97.2349 51.9322 98.0444 57.2676L98.0464 57.28L98.1452 57.9048C98.4319 59.9127 98.4652 61.9303 98.457 64.1003L98.457 64.1043L98.4565 64.3853L98.4559 64.668C98.4559 64.6688 98.4559 64.6696 98.4559 64.6704C98.4559 64.6704 98.4559 64.6705 98.4559 64.6705C98.4475 67.3669 98.3602 69.8581 97.8714 72.339L97.8683 72.3549L97.8654 72.3708L97.774 72.8776C96.169 81.7222 91.872 89.8131 85.6022 96.2842L85.6013 96.2852L85.2636 96.6342C85.2629 96.6349 85.2621 96.6357 85.2614 96.6364C83.8398 98.0975 82.4676 99.4256 80.9386 100.584L80.9329 100.588L80.9272 100.593L80.6217 100.828C80.6212 100.828 80.6207 100.828 80.6202 100.829C78.8262 102.204 76.9353 103.42 74.9376 104.573L74.933 104.576L74.5559 104.794C74.5545 104.795 74.553 104.796 74.5516 104.797C69.9173 107.454 64.6137 109.173 59.277 109.954L59.2764 109.954L58.609 110.052C58.6058 110.053 58.6026 110.053 58.5994 110.054C56.5528 110.333 54.4942 110.376 52.3068 110.367L52.3028 110.367L52.0283 110.367L51.7523 110.366C49.0836 110.358 46.6093 110.262 44.1432 109.782L44.1283 109.78L44.1134 109.777L43.6048 109.686C43.6045 109.686 43.6042 109.686 43.6039 109.686C32.494 107.681 21.9437 101.259 15.2665 92.1765L15.2615 92.1697L15.2564 92.1629L15.0147 91.84C13.8428 90.2726 12.7908 88.6469 11.8198 86.9344L11.8173 86.93L11.5922 86.5354C11.5915 86.5343 11.5909 86.5331 11.5903 86.532C9.25741 82.4 7.67703 77.8807 6.71179 73.1793L6.71168 73.1788L6.63066 72.7847C6.38059 71.4646 6.21869 69.391 6.12168 67.5572C6.074 66.6558 6.04342 65.8431 6.02478 65.2558C6.01546 64.9625 6.00915 64.7261 6.00518 64.5638C6.0032 64.4827 6.0018 64.4201 6.00091 64.3782L6.00004 64.3365L6.00115 63.7939L6.0012 63.789L6.00126 63.7838L6.00182 63.7412C6.00234 63.703 6.00318 63.6458 6.00447 63.5714C6.00703 63.4227 6.01133 63.2057 6.01824 62.9364C6.03208 62.3971 6.05629 61.6511 6.09769 60.8244C6.18267 59.1276 6.33377 57.2403 6.58057 56.0656L6.58059 56.0656L6.58277 56.0549L6.69395 55.5109C6.69431 55.5092 6.69467 55.5075 6.69503 55.5058C8.52944 46.767 12.4887 38.8659 18.6686 32.4689L18.6718 32.4656L19.0286 32.0945C19.0292 32.0939 19.0298 32.0933 19.0303 32.0927C20.7078 30.3575 22.3673 28.8075 24.2406 27.4433L24.2485 27.4376L24.2563 27.4318L24.8975 26.9552C24.8989 26.9542 24.9003 26.9531 24.9018 26.9521C26.3659 25.8763 27.8948 24.9104 29.5019 24.0046L29.5064 24.0021L29.9022 23.7777C29.9034 23.777 29.9046 23.7763 29.9058 23.7756C34.0513 21.4493 38.5855 19.8732 43.3026 18.9106L43.3031 18.9105L43.6988 18.8296C46.4375 18.312 49.1884 18.183 52.0951 18.1889ZM52.0991 16.1901L52.0991 16.1889L52.0991 16.1901Z" fill="#6CC6FF" stroke="#6CC6FF" stroke-width="4"/>
<path d="M77.0659 26.577C77.2 26.6371 77.3341 26.6973 77.4723 26.7592C78.2834 27.1248 79.0877 27.5025 79.8884 27.8902C79.8022 28.541 79.7207 29.1422 79.5121 29.7661C79.6433 29.7057 79.7745 29.6452 79.9097 29.5829C81.3649 29.0686 82.9701 29.2762 84.3543 29.9017C84.9199 30.2196 85.4083 30.605 85.9111 31.0126C86.3174 31.2883 86.646 31.3859 87.1209 31.5014C88.3126 31.8603 88.9277 32.758 89.6729 33.7057C89.758 33.8124 89.8431 33.9192 89.9308 34.0292C95.2494 40.7328 98.6574 48.5325 100.022 56.9676C100.044 57.0949 100.066 57.2222 100.089 57.3534C100.503 59.776 100.436 62.21 100.398 64.659C100.095 64.1081 99.932 63.6049 99.8057 62.9904C99.7497 62.7235 99.7497 62.7235 99.6926 62.4512C99.6537 62.2628 99.6149 62.0744 99.5749 61.8803C98.812 57.4868 98.812 57.4868 96.0704 54.1536C95.5923 53.8604 95.1108 53.5751 94.6246 53.2955C94.1888 53.0281 94.1888 53.0281 93.6948 52.5825C93.033 52.131 92.5326 52.2243 91.7426 52.2777C91.5792 52.6995 91.5792 52.6995 91.5545 53.2157C92.0846 54.058 92.5689 54.3093 93.5067 54.5992C94.8042 55.0594 95.4271 55.6017 96.0932 56.7771C96.4994 57.7058 96.3187 58.6261 95.9645 59.5353C95.3826 60.7159 94.5017 61.1629 93.3185 61.6458C92.4735 61.9957 92.0778 62.4178 91.5545 63.1582C91.0048 62.6845 90.7513 62.1669 90.4446 61.5153C90.34 61.2955 90.2354 61.0757 90.1277 60.8492C90.0727 60.7324 90.0177 60.6157 89.9611 60.4954C89.6712 59.8803 89.3771 59.2673 89.0826 58.6545C89.0226 58.5296 88.9627 58.4047 88.9009 58.276C88.2923 57.0144 87.653 55.7699 87.0033 54.5288C86.9017 54.3344 86.8001 54.1399 86.6954 53.9396C86.1698 52.9372 86.1698 52.9372 85.5963 51.9618C85.3451 51.5273 85.3451 51.5273 85.3451 51.1521C85.2209 51.1521 85.0967 51.1521 84.9688 51.1521C84.8803 52.7374 84.9426 53.8896 85.7214 55.2792C86.3712 56.4475 86.8848 57.4444 87.0386 58.7849C87.184 60 87.5983 60.715 88.3557 61.6575C88.5402 61.9074 88.7245 62.1575 88.9084 62.4079C89.1005 62.658 89.2926 62.9081 89.4847 63.1582C89.6484 63.3806 89.6484 63.3806 89.8154 63.6075C90.6077 64.7127 90.6077 64.7127 91.7426 65.4094C92.5752 65.4822 93.0876 65.4311 93.8124 65.0342C93.4177 66.2622 92.969 67.4617 92.4901 68.6594C92.4177 68.8417 92.3453 69.024 92.2706 69.2118C92.0363 69.8009 91.8013 70.3898 91.5662 70.9787C91.4035 71.3867 91.2409 71.7947 91.0782 72.2028C90.8352 72.8123 90.592 73.4218 90.3487 74.0313C89.8983 75.1595 89.451 76.2889 89.0077 77.4199C86.2732 84.3793 86.2732 84.3793 84.2705 87.2797C83.8928 87.9861 83.8311 88.7091 83.7362 89.4957C83.5885 90.3496 83.1249 90.7411 82.4756 91.2625C82.367 91.336 82.2583 91.4095 82.1463 91.4853C82.2084 91.5472 82.2705 91.6091 82.3345 91.6729C82.3992 92.2347 82.4411 92.6304 82.3345 93.1736C81.7012 93.7879 81.0607 93.9734 80.2294 94.2406C78.7561 94.7488 77.7273 95.7617 76.5926 96.7929C76.3728 96.992 76.3728 96.992 76.1486 97.1952C76.0211 97.3149 75.8935 97.4346 75.762 97.5579C75.0412 98.1234 74.398 98.2904 73.4908 98.2387C73.099 97.2152 72.7357 96.1877 72.3972 95.1456C72.3492 94.9985 72.3012 94.8515 72.2518 94.7C72.151 94.3909 72.0505 94.0817 71.9501 93.7725C71.7984 93.3056 71.6458 92.8389 71.4931 92.3723C71.2544 91.6407 71.0193 90.9081 70.7878 90.1743C70.6839 89.8459 70.5782 89.5182 70.4722 89.1906C69.7835 86.9226 70.1629 85.2206 70.9507 83.02C71.6502 81.0534 72.1804 79.4527 71.4314 77.4185C71.0152 76.6257 70.3877 76.1967 69.5394 75.9148C69.7041 75.0237 69.7041 75.0237 69.9158 74.6016C69.6053 74.6016 69.2948 74.6016 68.9749 74.6016C69.037 74.4198 69.0991 74.2379 69.1631 74.0505C69.3922 73.2347 69.484 72.4413 69.3513 71.6001C69.0137 71.0616 68.79 70.7575 68.2223 70.4745C67.6485 70.43 67.075 70.4028 66.5002 70.3763C65.9643 70.2869 65.9643 70.2869 65.6108 70.0451C65.3999 69.7241 65.3999 69.7241 65.3999 68.9737C63.0331 68.8596 60.7143 69.2516 58.5201 70.1345C56.4893 70.9459 56.4893 70.9459 55.4272 70.6621C54.4428 70.2215 53.7123 69.5698 52.9811 68.7861C52.8715 68.687 52.7618 68.5878 52.6489 68.4857C51.077 67.0357 49.3895 64.8373 49.1671 62.6621C49.1296 61.6487 49.2524 60.9002 49.6552 59.9772C49.9271 59.1577 49.9816 58.1248 49.5971 57.3398C49.5341 57.217 49.471 57.0941 49.406 56.9676C49.121 55.5796 49.5564 54.5803 50.3013 53.4186C51.3791 51.9415 52.5288 50.7429 54.0278 49.6982C55.0615 48.9649 55.2147 48.6134 55.4272 47.4002C56.4285 45.8879 57.638 45.3328 59.3786 44.9614C59.909 44.8788 60.4404 44.8212 60.9743 44.7672C61.1933 44.7437 61.1933 44.7437 61.4167 44.7197C61.878 44.6703 62.3394 44.6223 62.8009 44.5745C63.2643 44.5258 63.7277 44.4768 64.191 44.4273C64.4779 44.3967 64.7648 44.3666 65.0517 44.3371C65.7416 44.2642 66.4151 44.1684 67.0933 44.0234C68.382 43.9011 68.382 43.9011 68.9514 44.2228C69.1631 44.5862 69.1631 44.5862 69.316 45.2194C69.5364 45.8902 69.744 46.2359 70.3075 46.6659C70.8944 46.9448 71.4959 46.9234 72.137 46.9568C72.55 47.025 72.55 47.025 72.8911 47.4588C73.0017 47.7084 73.0017 47.7084 73.1145 47.963C73.9676 48.8683 75.1536 49.1171 76.3133 49.4637C76.3016 49.2355 76.29 49.0072 76.278 48.772C76.2741 48.0422 76.4313 47.6185 76.8778 47.025C76.9554 47.0997 77.033 47.1744 77.113 47.2514C77.2216 47.3508 77.3303 47.4502 77.4423 47.5526C77.5471 47.6505 77.6518 47.7485 77.7598 47.8494C79.0026 48.7096 80.2113 48.7925 81.6759 48.8071C82.9713 48.8201 83.9637 48.9412 85.1569 49.4637C85.0774 48.9121 84.9947 48.3614 84.91 47.8105C84.8878 47.6542 84.8656 47.4979 84.8427 47.3368C84.8191 47.1863 84.7954 47.0357 84.7711 46.8806C84.7504 46.7421 84.7297 46.6036 84.7084 46.4609C84.568 46.0081 84.4018 45.8132 84.028 45.5242C83.4645 45.4431 83.4645 45.4431 82.8402 45.4421C81.7912 45.3839 81.2186 45.3084 80.4529 44.5862C80.3204 44.3397 80.1936 44.09 80.0765 43.8359C82.1912 43.0654 84.0616 43.0004 86.2859 43.0855C86.1724 42.9133 86.0589 42.7411 85.9419 42.5637C85.1729 41.3892 84.4291 40.2356 83.8398 38.9584C83.6535 39.4536 83.4672 39.9489 83.2753 40.4591C83.2016 40.3547 83.1278 40.2502 83.0519 40.1426C82.6471 39.6276 82.2809 39.1854 81.77 38.7708C81.1584 38.7809 81.1584 38.7809 80.641 38.9584C80.4404 39.6182 80.4404 39.6182 80.641 40.2481C80.9366 40.8743 80.8172 41.3043 80.641 41.9599C80.2765 42.4172 80.2765 42.4172 79.7002 42.7103C79.0676 42.7691 78.4518 42.7544 77.8186 42.7103C77.7565 43.2674 77.6944 43.8246 77.6304 44.3986C77.2631 44.0324 77.0945 43.7361 76.8778 43.2731C76.7225 43.3388 76.5673 43.4046 76.4074 43.4724C75.7488 43.4607 75.7488 43.4607 75.3387 43.0972C74.9585 42.6655 74.5944 42.2278 74.2435 41.7723C74.1038 41.9 73.9641 42.0277 73.8201 42.1592C73.3027 42.5227 73.3027 42.5227 72.9369 42.4844C72.5005 42.316 72.2205 42.1115 71.8643 41.8097C71.7368 41.7036 71.6093 41.5976 71.478 41.4883C71.281 41.3213 71.281 41.3213 71.08 41.1509C69.0783 39.4547 69.0783 39.4547 66.5391 39.0639C64.7611 39.3178 63.5117 40.4359 62.3892 41.7723C62.0168 42.328 61.759 42.8017 61.6366 43.4607C57.9354 44.1819 57.9354 44.1819 56.9002 43.6102C56.2023 43.0408 55.6952 42.4687 55.5522 41.5569C55.5342 40.5338 55.6514 39.9337 56.368 39.146C57.2787 38.4082 58.0368 38.2843 59.1905 38.3956C59.5077 38.5113 59.8217 38.6362 60.1313 38.7708C60.569 38.8423 61.008 38.9067 61.4484 38.9584C61.2773 37.6699 61.0603 36.883 60.1313 35.9568C59.9431 35.7692 59.755 35.5816 59.5668 35.394C60.6144 34.8964 61.6622 34.3991 62.7101 33.9021C63.0662 33.7332 63.4223 33.5641 63.7783 33.395C64.2915 33.1512 64.8049 32.9078 65.3183 32.6644C65.555 32.5518 65.555 32.5518 65.7966 32.4369C66.6606 32.0277 67.5284 31.6361 68.4105 31.2669C68.3585 30.9028 68.3585 30.9028 68.2223 30.5165C67.5244 30.0527 67.0418 30.0742 66.2231 30.0366C65.6957 29.9388 65.5252 29.8194 65.2117 29.391C65.1058 28.7578 65.1058 28.7578 65.2117 28.0778C66.0467 27.2387 66.9198 26.8485 68.0224 26.448C68.1678 26.3928 68.3132 26.3375 68.463 26.2806C71.6318 25.0922 74.0405 25.2046 77.0659 26.577Z" fill="white"/>
<path d="M22.6869 28.2656C22.8732 28.4513 22.8732 28.4513 23.0633 28.6408C23.0625 28.9801 23.0625 28.9801 22.8751 29.3912C22.5101 29.7382 22.1572 30.038 21.7579 30.3409C21.6432 30.4295 21.5285 30.5181 21.4103 30.6094C20.1912 31.5293 18.8905 32.3098 17.5757 33.0845C17.0593 33.3895 16.5699 33.7052 16.1012 34.0811C16.1726 34.6984 16.1726 34.6984 16.4776 35.2066C16.9156 35.2756 17.3547 35.3384 17.7947 35.3942C17.7016 36.3228 17.7016 36.3228 17.6065 37.2702C18.1819 36.7662 18.1819 36.7662 18.3827 36.215C18.8971 35.2919 19.6254 34.5776 20.429 33.8935C20.5532 33.8935 20.6774 33.8935 20.8053 33.8935C21.0201 33.4805 21.1895 33.1138 21.311 32.6624C21.6217 32.0871 21.9384 32.0342 22.5348 31.8204C23.059 31.5461 23.2984 31.1276 23.6013 30.6332C23.8159 30.3291 23.8159 30.3291 24.3804 29.9539C24.8743 29.9188 24.8743 29.9188 25.3212 29.9539C25.5094 30.1415 25.5094 30.1415 25.5211 30.6223C25.5173 30.7732 25.5134 30.9241 25.5094 31.0795C25.6658 31.0367 25.8223 30.9939 25.9835 30.9498C26.1879 30.8959 26.3924 30.842 26.6031 30.7864C26.8061 30.732 27.0091 30.6776 27.2183 30.6215C27.7673 30.5167 27.7673 30.5167 28.3318 30.7043C28.2076 30.8901 28.0834 31.0758 27.9555 31.2671C27.971 31.8443 27.971 31.8443 28.1437 32.3927C28.6926 32.7576 29.014 32.8528 29.649 32.9555C29.3944 33.8867 28.8521 34.2707 28.0731 34.7728C27.9644 34.846 27.8558 34.9191 27.7438 34.9945C26.2981 35.957 26.2981 35.957 25.5094 35.957C25.6025 36.3285 25.6025 36.3285 25.6975 36.7074C25.4574 36.6917 25.2173 36.676 24.9699 36.6598C24.6558 36.6404 24.3417 36.6211 24.0276 36.6019C23.8692 36.5914 23.7108 36.5808 23.5476 36.57C23.396 36.5609 23.2444 36.5519 23.0882 36.5425C22.9483 36.5337 22.8084 36.5248 22.6642 36.5157C22.2932 36.4943 22.2932 36.4943 21.9343 36.7074C21.8109 37.1815 21.8109 37.1815 21.7461 37.6454C21.8936 37.5525 22.0411 37.4597 22.193 37.364C22.6869 37.0826 22.6869 37.0826 23.0633 37.0826C23.0633 37.454 23.0633 37.8255 23.0633 38.2082C23.4979 38.2701 23.9326 38.332 24.3804 38.3958C24.4425 38.5815 24.5046 38.7672 24.5686 38.9586C23.1705 40.432 23.1705 40.432 22.0636 40.4945C21.8968 40.4829 21.7299 40.4713 21.558 40.4593C21.558 40.0879 21.558 39.7164 21.558 39.3338C20.1268 39.7319 19.4667 40.3957 18.7355 41.667C17.9714 42.9924 17.2946 43.7825 15.866 44.3754C15.2745 44.6425 15.2745 44.6425 14.7841 44.9616C14.5402 45.6545 14.5619 46.0429 14.6665 46.7555C14.5643 47.4177 14.1717 47.588 13.6558 47.9859C13.0591 48.5438 12.6963 49.2301 12.2953 49.9351C11.6895 50.7827 10.937 51.023 9.95066 51.2578C9.17979 51.4272 9.17979 51.4272 8.57472 51.9027C8.45285 52.3849 8.45285 52.3849 8.38656 52.8407C8.07609 52.7788 7.76562 52.7169 7.44574 52.6531C7.20123 53.2778 6.95875 53.9034 6.71661 54.529C6.64797 54.7044 6.57933 54.8797 6.5086 55.0603C6.00926 56.3547 5.57503 57.6159 5.45827 59.0079C5.41915 59.4648 5.39455 59.7446 5.18779 60.1569C5.55566 60.1337 5.55566 60.1337 5.94044 59.9693C6.17604 59.5552 6.17604 59.5552 6.32852 59.0548C6.70694 57.944 6.70694 57.944 7.25758 57.5306C7.44386 57.5306 7.63014 57.5306 7.82207 57.5306C7.83562 58.2333 7.83924 58.9012 7.7471 59.5993C7.72139 59.7949 7.69567 59.9905 7.66918 60.1921C7.64081 60.3766 7.61243 60.5611 7.58319 60.7512C7.58017 61.3253 7.58017 61.3253 8.08741 61.7251C8.7058 62.3537 8.75122 62.8929 8.80992 63.733C8.89857 64.8653 8.89857 64.8653 9.13921 65.9724C10.2636 65.8577 11.0221 65.6635 11.8793 64.9054C12.4418 64.4366 12.7696 64.1817 13.514 64.2371C15.7013 64.7001 17.4429 65.5002 18.7473 67.3207C19.5331 68.3939 20.3821 68.5954 21.652 68.8684C22.706 69.0985 23.5677 69.2945 24.218 70.2146C24.4567 70.8727 24.4198 71.5201 24.4039 72.21C24.4022 72.3497 24.4005 72.4895 24.3988 72.6335C24.3944 72.977 24.3876 73.3204 24.3804 73.6638C24.1068 73.7393 24.1068 73.7393 23.8277 73.8163C23.6375 73.8898 23.4473 73.9633 23.2514 74.039C23.1893 74.2247 23.1272 74.4105 23.0633 74.6018C23.1991 74.5051 23.3349 74.4084 23.4749 74.3087C24.0041 74.039 24.0041 74.039 24.5098 74.0742C24.9449 74.2266 24.9449 74.2266 25.3212 74.6018C25.4454 74.5399 25.5696 74.478 25.6975 74.4142C26.7684 74.3116 27.3084 74.4905 28.1437 75.1646C28.2057 75.2884 28.2678 75.4122 28.3318 75.5398C29.131 75.8471 30.0468 75.7674 30.8908 75.7585C31.2608 75.7706 31.2608 75.7706 31.9069 75.915C32.2002 76.4389 32.2002 76.4389 32.4714 77.0406C33.04 77.4683 33.04 77.4683 33.6945 77.8144C35.164 78.6361 35.164 78.6361 35.482 79.2917C35.4495 80.2005 35.0974 80.8416 34.6588 81.6249C33.7365 83.3675 33.4391 85.1656 33.3299 87.1239C33.2443 88.4815 32.9723 89.7724 32.0716 90.8289C31.432 91.1615 30.8018 91.3394 30.101 91.503C29.5331 91.7166 29.2743 91.9504 28.8963 92.4234C28.6646 92.9618 28.6646 92.9618 28.5082 93.5607C28.4454 93.775 28.3826 93.9893 28.3178 94.21C28.2065 94.6269 28.1032 95.0461 28.0106 95.4675C27.8955 95.9764 27.7882 96.4473 27.5792 96.9257C26.9794 97.2423 26.9794 97.2423 26.4502 97.3009C26.5123 97.3628 26.5744 97.4248 26.6383 97.4885C26.646 97.8011 26.6464 98.114 26.6383 98.4265C26.324 98.502 26.324 98.502 26.0033 98.5789C25.2801 98.7376 25.2801 98.7376 24.9449 99.3645C24.775 100.776 25.3375 101.811 26.0856 102.964C26.7787 103.745 27.7853 104.163 28.7081 104.617C28.646 104.741 28.584 104.865 28.52 104.992C26.508 104.992 24.8202 103.147 23.4499 101.838C20.5444 98.9195 18.6293 95.2088 17.6065 91.2627C16.9704 88.8525 16.1085 87.3341 14.3754 85.5583C13.0397 84.1542 12.3895 82.5139 11.6676 80.7339C11.1992 79.5824 10.5772 78.5975 9.79925 77.629C9.35181 77.0607 9.14353 76.6971 9.04513 75.9736C9.1444 75.3179 9.30313 75.1053 9.7037 74.6018C9.65163 74.1606 9.52618 73.8727 9.32737 73.4762C9.28874 72.8086 9.28494 72.2823 9.51039 71.6486C9.73116 70.9507 9.78746 70.2854 9.8213 69.5602C9.82857 69.431 9.83585 69.3019 9.84335 69.1689C9.8609 68.8538 9.87658 68.5387 9.89186 68.2235C9.7781 68.1735 9.66434 68.1234 9.54714 68.0719C8.21821 67.3437 7.57582 65.5703 6.94433 64.266C6.5229 63.4275 6.22046 63.0514 5.37595 62.5957C5.11943 62.1714 5.11943 62.1714 4.94082 61.7163C4.87946 61.5647 4.81809 61.4131 4.75487 61.2568C4.71145 61.1415 4.66803 61.0261 4.6233 60.9073C4.49911 60.9073 4.37492 60.9073 4.24697 60.9073C3.68074 50.9811 9.13712 40.5527 15.3486 33.1431C15.4577 32.9847 15.5669 32.8263 15.6793 32.6631C16.1553 32.1464 16.5734 31.9542 17.2021 31.665C17.9233 31.29 18.5181 30.7583 19.1354 30.2353C21.686 28.0993 21.686 28.0993 22.6869 28.2656Z" fill="white"/>
<path d="M57.3089 19.4486C56.9102 19.8793 56.5292 20.1575 56.0094 20.4291C55.8694 20.5026 55.7295 20.5761 55.5853 20.6518C55.44 20.7268 55.2947 20.8018 55.145 20.879C54.9997 20.9554 54.8544 21.0318 54.7047 21.1106C53.1633 21.9149 53.1633 21.9149 52.1932 21.8991C51.8381 21.8933 51.8381 21.8933 51.4758 21.8873C51.8134 22.6447 52.079 23.1339 52.793 23.5757C52.0988 23.8928 51.5588 23.9959 50.7974 23.9956C50.4963 24.0001 50.4963 24.0001 50.1892 24.0048C49.7727 24.0079 49.3562 24.0089 48.9397 24.0077C47.2079 24.0398 46.0474 24.5435 44.6314 25.4986C44.0337 25.8589 43.5473 25.8541 42.8556 25.862C41.4271 25.9298 40.7629 26.7217 39.8097 27.7028C38.9698 28.4181 38.3265 28.5956 37.2409 28.5499C36.7484 28.4421 36.5505 28.327 36.2111 27.9608C35.8298 27.2765 35.6917 26.9662 35.8583 26.2021C36.3399 25.7078 36.7789 25.4606 37.4107 25.182C37.9745 24.9393 37.9745 24.9393 38.0927 24.3847C38.1005 24.2416 38.1083 24.0984 38.1163 23.9509C37.93 23.8271 37.7437 23.7033 37.5518 23.5757C37.3283 23.0833 37.3283 23.0833 37.1755 22.6377C36.896 22.6842 36.896 22.6842 36.611 22.7315C35.8532 22.8412 35.1179 22.8387 34.353 22.8253C37.026 20.6514 39.5458 19.8434 42.9541 19.7234C43.1704 19.7153 43.3867 19.7072 43.6096 19.6989C44.3108 19.6732 45.0121 19.6487 45.7133 19.6245C45.9503 19.616 46.1873 19.6076 46.4314 19.599C50.0588 19.4712 53.6794 19.3925 57.3089 19.4486Z" fill="white"/>
<path d="M91.7426 80.9801C91.8668 80.9801 91.991 80.9801 92.119 80.9801C92.6293 81.5849 93.0469 82.1987 93.0833 82.9968C92.8066 83.5484 92.4151 83.7924 91.9308 84.1692C91.4258 85.0984 91.4882 86.0801 91.481 87.1096C91.4498 88.0816 91.2687 88.657 90.6137 89.4219C90.0512 89.8169 89.5761 89.8481 88.8967 89.844C88.6515 89.8455 88.6515 89.8455 88.4013 89.8469C87.9794 89.7971 87.9794 89.7971 87.6031 89.4219C87.5227 88.7615 87.527 88.4145 87.8912 87.8486C88.0134 87.7062 88.1357 87.5637 88.2616 87.417C89.0324 86.4012 89.0689 85.595 88.9202 84.3568C89.0938 84.2651 89.0938 84.2651 89.2708 84.1714C89.4229 84.0895 89.575 84.0075 89.7317 83.923C89.8823 83.8425 90.0329 83.762 90.1881 83.679C90.7614 83.3285 91.1048 83.0904 91.309 82.4384C91.349 82.2156 91.349 82.2156 91.3898 81.9884C91.5388 81.1833 91.5388 81.1833 91.7426 80.9801Z" fill="white"/>
<path d="M88.5439 39.709C88.8544 39.7709 89.1648 39.8328 89.4847 39.8966C89.5119 40.0165 89.5391 40.1365 89.567 40.26C89.6372 40.6424 89.6372 40.6424 89.8611 40.8346C89.8694 41.2097 89.8684 41.585 89.8611 41.9601C89.8611 42.2078 89.8611 42.4554 89.8611 42.7105C90.0753 42.8193 90.0753 42.8193 90.294 42.9304C90.481 43.0281 90.668 43.1258 90.8607 43.2264C91.0462 43.3222 91.2318 43.4179 91.4229 43.5166C91.9292 43.835 92.1982 44.0729 92.4953 44.5865C92.4953 44.7722 92.4953 44.9579 92.4953 45.1493C92.3711 45.2112 92.247 45.2731 92.119 45.3369C92.1462 45.4723 92.1733 45.6077 92.2013 45.7472C92.3483 46.48 92.3483 46.48 92.4953 47.2128C92.1072 47.377 92.1072 47.377 91.5545 47.4004C90.9456 47.0081 90.3763 46.5518 90.0492 45.8997C90.03 45.5989 90.0149 45.2979 90.0022 44.9968C89.9162 44.049 89.6619 43.7047 88.9202 43.0857C88.2095 42.2 87.9975 41.5737 87.9794 40.4594C88.2499 39.9904 88.2499 39.9904 88.5439 39.709Z" fill="#6CC6FF"/>
<path d="M30.1546 25.8033C30.4351 25.8083 30.4351 25.8083 30.7213 25.8135C30.8642 25.8179 31.007 25.8222 31.1542 25.8267C31.4091 26.3349 31.3546 26.7664 31.3424 27.3275C30.9077 27.3275 30.4731 27.3275 30.0253 27.3275C30.0369 27.5325 30.0485 27.7376 30.0605 27.9489C30.0253 28.6406 30.0253 28.6406 29.8371 28.9924C29.3481 29.2666 28.8718 29.3079 28.3186 29.3544C27.9375 29.38 27.9375 29.38 27.5203 29.5317C27.2028 29.5786 27.2028 29.5786 26.8618 29.3793C26.6383 29.0158 26.6383 29.0158 26.6148 28.453C26.6847 28.2673 26.7545 28.0816 26.8265 27.8903C27.2643 27.6998 27.7034 27.5123 28.1436 27.3275C28.3891 26.7654 28.3891 26.7654 28.52 26.2019C29.1636 25.7741 29.4009 25.7856 30.1546 25.8033Z" fill="white"/>
<path d="M29.6489 35.957C29.6489 36.0808 29.6489 36.2046 29.6489 36.3322C29.3395 36.5674 29.3395 36.5674 28.9315 36.8129C28.7318 36.9351 28.7318 36.9351 28.528 37.0598C27.7634 37.4781 27.124 37.5345 26.262 37.4577C25.8974 37.0826 25.8974 37.0826 25.6975 36.7074C26.9809 35.6184 28.0275 35.5398 29.6489 35.957Z" fill="white"/>
<path d="M52.4166 25.8268C52.363 26.1814 52.363 26.1814 52.2284 26.5771C51.0883 27.1558 50.1051 27.2096 48.8415 27.1399C48.7794 27.0161 48.7173 26.8923 48.6534 26.7647C49.0315 26.5691 49.4123 26.3786 49.7941 26.1902C50.0058 26.0836 50.2176 25.9769 50.4358 25.8671C51.1899 25.6081 51.6465 25.6556 52.4166 25.8268Z" fill="white"/>
<path d="M26.8265 35.3942C26.9507 35.4561 27.0749 35.518 27.2028 35.5818C26.7795 36.0508 26.7795 36.0508 26.262 36.5197C26.0136 36.5197 25.7653 36.5197 25.5094 36.5197C25.5094 36.334 25.5094 36.1483 25.5094 35.957C25.9428 35.7569 26.3825 35.5697 26.8265 35.3942Z" fill="white"/>
<path d="M16.1012 32.2051C16.2875 32.267 16.4738 32.329 16.6657 32.3927C16.2311 32.8261 15.7964 33.2594 15.3486 33.7059C15.2244 33.644 15.1002 33.5821 14.9722 33.5183C15.3448 33.085 15.7174 32.6516 16.1012 32.2051Z" fill="white"/>
<rect x="44.2907" y="38.3677" width="15.9585" height="51.3446" rx="7.97923" fill="#7AFFE1"/>
<rect x="26.5976" y="72.0192" width="15.9585" height="51.3446" rx="7.97923" transform="rotate(-90 26.5976 72.0192)" fill="#7AFFE1"/>
<path d="M111.452 34.0682C107.633 40.5219 85.6874 50.5274 85.6874 50.5274C85.6874 50.5274 83.8954 26.4751 87.7144 20.0213C91.5335 13.5676 99.9433 11.4801 106.498 15.3591C113.053 19.238 115.271 27.6143 111.452 34.0682Z" fill="#4546D7"/>
<path d="M106.909 30.7242C109.173 26.8996 107.857 21.9353 103.97 19.6362C100.082 17.3371 95.0949 18.5738 92.8304 22.3984C90.566 26.223 91.8817 31.1873 95.7693 33.4863C99.6568 35.7854 104.644 34.5488 106.909 30.7242Z" fill="white"/>
<path d="M108.816 12.2041C108.797 12.1268 108.796 12.0436 108.818 11.961L109.794 8.32926C109.864 8.06932 110.132 7.91504 110.392 7.98486C110.652 8.05472 110.807 8.32212 110.737 8.58259L109.761 12.2144C109.691 12.4743 109.423 12.6286 109.163 12.5588C108.985 12.5109 108.857 12.3709 108.816 12.2041Z" fill="#D742BC"/>
<path d="M113.93 17.347C113.883 17.1565 113.955 16.9485 114.125 16.8297L117.476 14.4955C117.697 14.3417 118.001 14.396 118.155 14.6169C118.309 14.8379 118.255 15.1418 118.034 15.2959L114.683 17.6301C114.462 17.784 114.158 17.7296 114.004 17.5087C113.969 17.4583 113.944 17.4034 113.93 17.347Z" fill="#D742BC"/>
<path d="M117.664 24.5181C117.6 24.2566 117.759 23.9922 118.021 23.9276L120.8 23.2415C121.062 23.177 121.326 23.3367 121.391 23.5982C121.455 23.8597 121.296 24.124 121.034 24.1886L118.255 24.8747C117.993 24.9392 117.729 24.7796 117.664 24.5181Z" fill="#D742BC"/>
</svg>
