<svg width="80" height="80" viewBox="0 0 80 80" fill="none" xmlns="http://www.w3.org/2000/svg">
<path d="M80 40C80 17.9086 62.0914 0 40 0C17.9086 0 0 17.9086 0 40C0 62.0914 17.9086 80 40 80C62.0914 80 80 62.0914 80 40Z" fill="#2787F5"/>
<path fill-rule="evenodd" clip-rule="evenodd" d="M63.3431 28.4815C63.6812 27.424 63.3432 26.6469 61.7341 26.6469H56.4135C55.0606 26.6469 54.4369 27.3181 54.0987 28.0584C54.0987 28.0584 51.393 34.245 47.56 38.2637C46.3199 39.4269 45.7561 39.797 45.0798 39.797C44.7415 39.797 44.252 39.4269 44.252 38.3694V28.4815C44.252 27.2124 43.8594 26.6469 42.7319 26.6469H34.3709C33.5255 26.6469 33.017 27.2358 33.017 27.7941C33.017 28.9971 34.9335 29.2745 35.131 32.6587V40.0087C35.131 41.6201 34.8208 41.9123 34.1443 41.9123C32.3407 41.9123 27.9531 35.698 25.3509 28.5872C24.8409 27.2051 24.3294 26.6469 22.9696 26.6469H17.649C16.1288 26.6469 15.8247 27.3181 15.8247 28.0584C15.8247 29.3804 17.6286 35.9371 24.2236 44.6089C28.6203 50.5311 34.8148 53.7413 40.4516 53.7413C43.8337 53.7413 44.2521 53.0283 44.2521 51.8002V47.3243C44.2521 45.8982 44.5725 45.6136 45.6435 45.6136C46.4326 45.6136 47.7855 45.9838 50.9421 48.8391C54.5497 52.2232 55.1444 53.7413 57.1736 53.7413H62.4943C64.0144 53.7413 64.7745 53.0283 64.336 51.6212C63.8562 50.2189 62.1338 48.1842 59.8483 45.7722C58.6081 44.3974 56.748 42.9169 56.1843 42.1765C55.3952 41.2248 55.6206 40.8018 56.1843 39.9558C56.1843 39.9558 62.6667 31.3897 63.3431 28.4815Z" fill="white"/>
</svg>
