<svg width="80" height="80" viewBox="0 0 80 80" fill="none" xmlns="http://www.w3.org/2000/svg">
<g clip-path="url(#clip0_193_415)">
<path d="M40 80C62.0914 80 80 62.0914 80 40C80 17.9086 62.0914 0 40 0C17.9086 0 0 17.9086 0 40C0 62.0914 17.9086 80 40 80Z" fill="#27D045"/>
<path d="M40.3333 58.9999C51.0108 58.9999 59.6667 50.3441 59.6667 39.6666C59.6667 28.9891 51.0108 20.3333 40.3333 20.3333C29.6558 20.3333 21 28.9891 21 39.6666C21 50.3441 29.6558 58.9999 40.3333 58.9999Z" stroke="white" stroke-width="2.91667"/>
<path d="M22.6665 50.6666L19.5999 61.5333L30.8665 58.3999L31.4665 54.9333L24.1331 57.2666L26.0665 50.2666L22.6665 50.6666Z" fill="white"/>
<path d="M24 57.3333C24 57.2667 26.3333 49.5333 26.3333 49.5333L31.9333 54.8L24 57.3333Z" fill="#27D045"/>
<path d="M31.9787 30.0887C31.298 30.561 30.7177 31.1636 30.2714 31.8617C29.8252 32.5597 29.5217 33.3393 29.3787 34.1554C29.0454 36.7554 30.6454 39.422 30.6454 39.422C32.2685 41.8366 34.1954 44.0324 36.3787 45.9554C38.2888 47.4665 40.4573 48.6185 42.7787 49.3554C44.1331 49.8952 45.6142 50.0341 47.0454 49.7554C48.3138 49.407 49.4359 48.6589 50.2453 47.622C50.4341 47.15 50.5684 46.6579 50.6454 46.1554C50.7213 45.7142 50.7213 45.2632 50.6454 44.822C50.5787 44.3554 45.7787 42.1554 45.312 42.2887C44.8454 42.422 44.4453 43.2887 43.912 44.022C43.3786 44.7554 43.1787 45.0887 42.6454 45.0887C42.112 45.0887 39.7786 44.1554 37.5786 42.1554C36.3225 41.0654 35.3406 39.6951 34.712 38.1554C34.712 38.1554 35.112 37.6887 35.6454 36.9554C36.0605 36.5007 36.358 35.9514 36.512 35.3554C36.512 35.022 34.6453 30.2887 34.1787 30.0887C33.4489 29.9865 32.7085 29.9865 31.9787 30.0887Z" fill="white"/>
</g>
<defs>
<clipPath id="clip0_193_415">
<rect width="80" height="80" fill="white"/>
</clipPath>
</defs>
</svg>
