<svg width="80" height="80" viewBox="0 0 80 80" fill="none" xmlns="http://www.w3.org/2000/svg">
<path d="M40 80C62.0914 80 80 62.0914 80 40C80 17.9086 62.0914 0 40 0C17.9086 0 0 17.9086 0 40C0 62.0914 17.9086 80 40 80Z" fill="#FF0000"/>
<path fill-rule="evenodd" clip-rule="evenodd" d="M62.601 24.7562C63.3992 25.5544 63.9744 26.5478 64.2692 27.6374C65.967 34.4714 65.5746 45.2648 64.3022 52.3626C64.0074 53.4522 63.4322 54.4456 62.634 55.2438C61.8358 56.042 60.8424 56.6172 59.7528 56.912C55.7638 58 39.7088 58 39.7088 58C39.7088 58 23.6538 58 19.6648 56.912C18.5752 56.6172 17.5818 56.042 16.7836 55.2438C15.9854 54.4456 15.4102 53.4522 15.1154 52.3626C13.4076 45.5582 13.8758 34.7582 15.0824 27.6704C15.3772 26.5806 15.9524 25.5872 16.7506 24.789C17.5488 23.9908 18.5422 23.4158 19.6318 23.1208C23.6208 22.033 39.6758 22 39.6758 22C39.6758 22 55.7308 22 59.7198 23.088C60.8094 23.3828 61.8028 23.958 62.601 24.7562ZM47.8846 40L34.566 47.7142V32.2856L47.8846 40Z" fill="white"/>
</svg>
